<svg xmlns="http://www.w3.org/2000/svg" viewBox="0 0 1600 760" role="img" aria-label="Organic lively abstract hero">
  <defs>
    <linearGradient id="bg" x1="0" y1="0" x2="1" y2="1">
      <stop offset="0%" stop-color="#f7fff7"/>
      <stop offset="45%" stop-color="#eafcf6"/>
      <stop offset="100%" stop-color="#e8f4ff"/>
    </linearGradient>
    <radialGradient id="g1" cx="25%" cy="30%" r="45%">
      <stop offset="0%" stop-color="#9ff7cc" stop-opacity="0.95"/>
      <stop offset="100%" stop-color="#9ff7cc" stop-opacity="0"/>
    </radialGradient>
    <radialGradient id="g2" cx="70%" cy="40%" r="40%">
      <stop offset="0%" stop-color="#97d7ff" stop-opacity="0.95"/>
      <stop offset="100%" stop-color="#97d7ff" stop-opacity="0"/>
    </radialGradient>
    <radialGradient id="g3" cx="50%" cy="70%" r="38%">
      <stop offset="0%" stop-color="#c6b6ff" stop-opacity="0.85"/>
      <stop offset="100%" stop-color="#c6b6ff" stop-opacity="0"/>
    </radialGradient>
    <filter id="blur" x="-20%" y="-20%" width="140%" height="140%">
      <feGaussianBlur stdDeviation="18"/>
    </filter>
  </defs>

  <rect width="1600" height="760" fill="url(#bg)"/>
  <rect width="1600" height="760" fill="url(#g1)"/>
  <rect width="1600" height="760" fill="url(#g2)"/>
  <rect width="1600" height="760" fill="url(#g3)"/>

  <g filter="url(#blur)" opacity="0.9">
    <path d="M120 510C220 420 340 430 470 470C630 520 760 510 910 420C1040 340 1180 320 1350 360C1460 385 1520 440 1560 500V760H80Z" fill="#a8ffd7"/>
    <path d="M-40 570C70 520 180 540 290 590C450 660 620 650 790 600C940 555 1110 520 1300 545C1420 560 1520 610 1640 700V760H-40Z" fill="#9ad9ff"/>
    <path d="M180 300C260 210 390 200 500 260C610 320 720 340 860 300C980 265 1120 250 1240 320C1330 375 1370 450 1395 520C1310 500 1215 500 1125 520C980 555 850 615 670 610C500 605 350 530 220 480C150 453 90 440 20 445C45 380 90 340 180 300Z" fill="#c5b7ff"/>
  </g>

  <g opacity="0.5">
    <circle cx="280" cy="180" r="7" fill="#2ea870"/>
    <circle cx="1180" cy="140" r="6" fill="#2e8bd1"/>
    <circle cx="980" cy="230" r="5" fill="#6f53d8"/>
    <circle cx="420" cy="220" r="4" fill="#2ea870"/>
    <circle cx="760" cy="165" r="6" fill="#2e8bd1"/>
  </g>
</svg>
