<svg xmlns="http://www.w3.org/2000/svg" width="1200" height="560" viewBox="0 0 1200 560" role="img" aria-labelledby="title desc">
  <title id="title">Experiments timeline ribbons</title>
  <desc id="desc">Colorful layered ribbons crossing left to right to suggest multiple project timelines.</desc>
  <defs>
    <linearGradient id="bg" x1="0" y1="0" x2="0" y2="1">
      <stop offset="0%" stop-color="#020617"/>
      <stop offset="100%" stop-color="#0f172a"/>
    </linearGradient>
  </defs>
  <rect width="1200" height="560" fill="url(#bg)"/>
  <path d="M0 140C170 80 220 240 390 180C530 130 620 70 790 120C930 160 1030 110 1200 140L1200 210L0 210Z" fill="#22c55e" opacity="0.72"/>
  <path d="M0 220C170 180 280 300 420 250C570 200 640 240 780 210C930 170 1040 260 1200 220L1200 300L0 300Z" fill="#0ea5e9" opacity="0.7"/>
  <path d="M0 310C130 270 240 400 390 360C560 320 610 360 760 330C930 290 1050 390 1200 350L1200 430L0 430Z" fill="#8b5cf6" opacity="0.68"/>
  <g fill="#e2e8f0" opacity="0.85">
    <circle cx="180" cy="173" r="8"/>
    <circle cx="350" cy="246" r="8"/>
    <circle cx="520" cy="352" r="8"/>
    <circle cx="720" cy="116" r="8"/>
    <circle cx="910" cy="314" r="8"/>
    <circle cx="1040" cy="194" r="8"/>
  </g>
</svg>
