<svg xmlns="http://www.w3.org/2000/svg" width="1200" height="675" viewBox="0 0 1200 675" role="img" aria-labelledby="title desc">
  <title id="title">Denno Jiro lab skyline illustration</title>
  <desc id="desc">A stylized night skyline with glowing windows and a moon over circuit-like grid lines.</desc>
  <defs>
    <linearGradient id="bg" x1="0" y1="0" x2="0" y2="1">
      <stop offset="0%" stop-color="#0d1b3a"/>
      <stop offset="100%" stop-color="#050814"/>
    </linearGradient>
    <linearGradient id="window" x1="0" y1="0" x2="1" y2="1">
      <stop offset="0%" stop-color="#7dd3fc"/>
      <stop offset="100%" stop-color="#a78bfa"/>
    </linearGradient>
  </defs>
  <rect width="1200" height="675" fill="url(#bg)"/>
  <circle cx="980" cy="130" r="58" fill="#f8fafc" opacity="0.92"/>
  <g opacity="0.16" stroke="#67e8f9" stroke-width="2" fill="none">
    <path d="M80 560H1120"/>
    <path d="M120 520H1080"/>
    <path d="M160 480H1040"/>
    <path d="M220 440H980"/>
  </g>
  <g fill="#0f172a">
    <rect x="120" y="260" width="120" height="320" rx="4"/>
    <rect x="250" y="210" width="160" height="370" rx="4"/>
    <rect x="430" y="300" width="145" height="280" rx="4"/>
    <rect x="590" y="190" width="170" height="390" rx="4"/>
    <rect x="780" y="250" width="130" height="330" rx="4"/>
    <rect x="930" y="220" width="170" height="360" rx="4"/>
  </g>
  <g fill="url(#window)">
    <rect x="140" y="290" width="16" height="24"/><rect x="170" y="290" width="16" height="24"/><rect x="200" y="290" width="16" height="24"/>
    <rect x="140" y="330" width="16" height="24"/><rect x="170" y="330" width="16" height="24"/><rect x="200" y="330" width="16" height="24"/>
    <rect x="280" y="250" width="18" height="24"/><rect x="315" y="250" width="18" height="24"/><rect x="350" y="250" width="18" height="24"/>
    <rect x="280" y="300" width="18" height="24"/><rect x="315" y="300" width="18" height="24"/><rect x="350" y="300" width="18" height="24"/>
    <rect x="620" y="230" width="18" height="26"/><rect x="656" y="230" width="18" height="26"/><rect x="692" y="230" width="18" height="26"/>
    <rect x="620" y="280" width="18" height="26"/><rect x="656" y="280" width="18" height="26"/><rect x="692" y="280" width="18" height="26"/>
    <rect x="960" y="260" width="18" height="24"/><rect x="995" y="260" width="18" height="24"/><rect x="1030" y="260" width="18" height="24"/>
    <rect x="960" y="305" width="18" height="24"/><rect x="995" y="305" width="18" height="24"/><rect x="1030" y="305" width="18" height="24"/>
  </g>
  <rect y="580" width="1200" height="95" fill="#020617"/>
</svg>
